<?xml version="1.0" standalone="no"?><svg xmlns="http://www.w3.org/2000/svg" viewBox="0 0 1440 320"><path fill="#ffffff" fill-opacity="1" d="M0,160L24,165.3C48,171,96,181,144,160C192,139,240,85,288,58.7C336,32,384,32,432,69.3C480,107,528,181,576,208C624,235,672,213,720,218.7C768,224,816,256,864,261.3C912,267,960,245,1008,197.3C1056,149,1104,75,1152,64C1200,53,1248,107,1296,122.7C1344,139,1392,117,1416,106.7L1440,96L1440,320L1416,320C1392,320,1344,320,1296,320C1248,320,1200,320,1152,320C1104,320,1056,320,1008,320C960,320,912,320,864,320C816,320,768,320,720,320C672,320,624,320,576,320C528,320,480,320,432,320C384,320,336,320,288,320C240,320,192,320,144,320C96,320,48,320,24,320L0,320Z"></path></svg>