<?xml version="1.0" standalone="no"?><svg xmlns="http://www.w3.org/2000/svg" viewBox="0 0 1440 320"><path fill="#ffffff" fill-opacity="1" d="M0,96L18.5,117.3C36.9,139,74,181,111,208C147.7,235,185,245,222,229.3C258.5,213,295,171,332,181.3C369.2,192,406,256,443,277.3C480,299,517,277,554,272C590.8,267,628,277,665,277.3C701.5,277,738,267,775,224C812.3,181,849,107,886,106.7C923.1,107,960,181,997,181.3C1033.8,181,1071,107,1108,74.7C1144.6,43,1182,53,1218,85.3C1255.4,117,1292,171,1329,186.7C1366.2,203,1403,181,1422,170.7L1440,160L1440,0L1421.5,0C1403.1,0,1366,0,1329,0C1292.3,0,1255,0,1218,0C1181.5,0,1145,0,1108,0C1070.8,0,1034,0,997,0C960,0,923,0,886,0C849.2,0,812,0,775,0C738.5,0,702,0,665,0C627.7,0,591,0,554,0C516.9,0,480,0,443,0C406.2,0,369,0,332,0C295.4,0,258,0,222,0C184.6,0,148,0,111,0C73.8,0,37,0,18,0L0,0Z"></path></svg>